# Blender v2.63 (sub 0) OBJ File: ''
# www.blender.org
mtllib ship.mtl
o V
v -1.218331 1.372275 0.467774
v -5.179364 1.372275 -8.770161
v -3.863495 1.372275 -8.770161
v -1.110913 1.372275 -2.338517
v 1.628242 1.372275 -8.770161
v 2.930684 1.372275 -8.770161
v -0.949786 1.372275 0.467774
v -1.218331 0.835186 0.467774
v -5.179364 0.835186 -8.770161
v -3.863495 0.835186 -8.770161
v -1.110913 0.835186 -2.338517
v 1.628242 0.835186 -8.770161
v 2.930684 0.835186 -8.770161
v -0.949786 0.835186 0.467774
v -1.218331 0.835186 0.467774
v -1.218331 1.372275 0.467774
v -5.179364 0.835186 -8.770161
v -5.179364 1.372275 -8.770161
v -3.863495 0.835186 -8.770161
v -3.863495 1.372275 -8.770161
v -1.110913 0.835186 -2.338517
v -1.110913 1.372275 -2.338517
v 1.628242 0.835186 -8.770161
v 1.628242 1.372275 -8.770161
v 2.930684 0.835186 -8.770161
v 2.930684 1.372275 -8.770161
v -0.949786 0.835186 0.467774
v -0.949786 1.372275 0.467774
vn 0.000000 1.000000 0.000000
vn 0.000000 -1.000000 -0.000000
vn -0.550401 0.000000 0.834864
vn -0.834864 0.000000 -0.550401
vn 0.550676 0.000000 -0.834681
vn -0.000855 0.000000 -0.999969
vn -0.551408 0.000000 -0.834193
vn 0.832820 0.000000 -0.553484
vn 0.553484 0.000000 0.832820
usemtl 
s off
f 1//1 3//1 2//1
f 1//1 4//1 3//1
f 4//1 6//1 5//1
f 4//1 7//1 6//1
f 1//1 7//1 4//1
f 10//2 8//2 9//2
f 11//2 8//2 10//2
f 13//2 11//2 12//2
f 14//2 11//2 13//2
f 14//2 8//2 11//2
s 1
f 16//3 18//4 17//4
f 16//3 17//4 15//3
f 18//4 20//5 19//5
f 18//4 19//5 17//4
f 20//5 22//6 21//6
f 20//5 21//6 19//5
f 22//6 24//7 23//7
f 22//6 23//7 21//6
f 24//7 26//8 25//8
f 24//7 25//8 23//7
f 26//8 28//9 27//9
f 26//8 27//9 25//8
f 28//9 16//3 15//3
f 28//9 15//3 27//9
