# Blender v2.63 (sub 0) OBJ File: 'TextModels.blend'
# www.blender.org
o V.002
v -0.609451 0.749004 -5.134974
v 0.060559 -0.411489 -4.248831
v -0.101540 -0.130724 -3.708500
v -0.741832 0.978295 -4.556820
v -0.741832 0.978295 -3.011473
v -1.041715 1.497709 -3.011473
v -1.041715 1.497709 -4.556820
v -1.690112 2.620767 -3.697694
v -1.849510 2.896852 -4.248831
v -1.168693 1.717641 -5.134974
v -1.849510 2.896852 -6.021118
v -1.690112 2.620767 -6.561449
v -1.041715 1.497709 -5.696919
v -1.041715 1.497709 -7.236863
v -0.741832 0.978295 -7.236863
v -0.741832 0.978295 -5.707726
v -0.101540 -0.130724 -6.561449
v 0.060559 -0.411489 -6.021118
v -1.074584 0.480460 -5.134974
v -0.404574 -0.680033 -4.248831
v -0.566673 -0.399269 -3.708500
v -1.206965 0.709751 -4.556820
v -1.206965 0.709751 -3.011473
v -1.506848 1.229165 -3.011473
v -1.506848 1.229165 -4.556820
v -2.155245 2.352222 -3.697694
v -2.314643 2.628308 -4.248831
v -1.633826 1.449097 -5.134974
v -2.314643 2.628308 -6.021118
v -2.155245 2.352222 -6.561449
v -1.506848 1.229165 -5.696919
v -1.506848 1.229165 -7.236863
v -1.206965 0.709751 -7.236863
v -1.206965 0.709751 -5.707726
v -0.566673 -0.399269 -6.561449
v -0.404574 -0.680033 -6.021118
v -1.074584 0.480460 -5.134974
v -0.609451 0.749004 -5.134974
v -0.404574 -0.680033 -4.248831
v 0.060559 -0.411489 -4.248831
v -0.566673 -0.399269 -3.708500
v -0.101540 -0.130724 -3.708500
v -1.206965 0.709751 -4.556820
v -0.741832 0.978295 -4.556820
v -1.206965 0.709751 -3.011473
v -0.741832 0.978295 -3.011473
v -1.506848 1.229165 -3.011473
v -1.041715 1.497709 -3.011473
v -1.506848 1.229165 -4.556820
v -1.041715 1.497709 -4.556820
v -2.155245 2.352222 -3.697694
v -1.690112 2.620767 -3.697694
v -2.314643 2.628308 -4.248831
v -1.849510 2.896852 -4.248831
v -1.633826 1.449097 -5.134974
v -1.168693 1.717641 -5.134974
v -2.314643 2.628308 -6.021118
v -1.849510 2.896852 -6.021118
v -2.155245 2.352222 -6.561449
v -1.690112 2.620767 -6.561449
v -1.506848 1.229165 -5.696919
v -1.041715 1.497709 -5.696919
v -1.506848 1.229165 -7.236863
v -1.041715 1.497709 -7.236863
v -1.206965 0.709751 -7.236863
v -0.741832 0.978295 -7.236863
v -1.206965 0.709751 -5.707726
v -0.741832 0.978295 -5.707726
v -0.566673 -0.399269 -6.561449
v -0.101540 -0.130724 -6.561449
v -0.404574 -0.680033 -6.021118
v 0.060559 -0.411489 -6.021118
vn 0.866026 0.500000 0.000000
vn 0.866026 0.499999 0.000000
vn -0.866026 -0.499999 0.000000
vn -0.866026 -0.500000 0.000000
vn 0.499985 -0.866024 0.000000
vn 0.487594 -0.844569 -0.221198
vn 0.110385 -0.191229 0.975311
vn 0.236549 -0.409742 0.880978
vn 0.353526 -0.612354 0.707083
vn -0.353526 0.612354 0.707083
vn -0.236549 0.409742 0.880978
vn -0.114292 0.197943 0.973510
vn -0.486282 0.842250 -0.232551
vn -0.499985 0.866024 0.000000
vn -0.486770 0.843135 0.228370
vn -0.111484 0.193091 -0.974792
vn -0.235908 0.408612 -0.881649
vn -0.353526 0.612354 -0.707083
vn 0.353526 -0.612354 -0.707083
vn 0.235908 -0.408612 -0.881649
vn 0.109684 -0.189978 -0.975616
vn 0.487594 -0.844569 0.221198
s off
f 13//1 15//1 14//1
f 13//1 16//1 15//1
f 11//1 13//1 12//1
f 16//1 18//1 17//1
f 10//2 13//2 11//2
f 16//1 1//1 18//1
f 13//1 1//1 16//1
f 10//1 1//1 13//1
f 9//1 1//1 10//1
f 7//2 1//2 9//2
f 4//1 1//1 7//1
f 2//1 1//1 4//1
f 9//1 8//1 7//1
f 6//1 4//1 7//1
f 6//1 5//1 4//1
f 3//1 2//1 4//1
f 33//3 31//3 32//3
f 34//4 31//4 33//4
f 31//3 29//3 30//3
f 36//3 34//3 35//3
f 31//3 28//3 29//3
f 19//4 34//4 36//4
f 19//4 31//4 34//4
f 19//3 28//3 31//3
f 19//3 27//3 28//3
f 25//4 27//4 19//4
f 22//4 25//4 19//4
f 20//3 22//3 19//3
f 26//3 27//3 25//3
f 22//3 24//3 25//3
f 23//3 24//3 22//3
f 20//4 21//4 22//4
s 1
f 38//5 40//6 39//6
f 38//5 39//6 37//5
f 40//6 42//7 41//7
f 40//6 41//7 39//6
f 42//7 44//8 43//8
f 42//7 43//8 41//7
f 44//8 46//9 45//9
f 44//8 45//9 43//8
f 46//9 48//10 47//10
f 46//9 47//10 45//9
f 48//10 50//11 49//11
f 48//10 49//11 47//10
f 50//11 52//12 51//12
f 50//11 51//12 49//11
f 52//12 54//13 53//13
f 52//12 53//13 51//12
f 54//13 56//14 55//14
f 54//13 55//14 53//13
f 56//14 58//15 57//15
f 56//14 57//15 55//14
f 58//15 60//16 59//16
f 58//15 59//16 57//15
f 60//16 62//17 61//17
f 60//16 61//17 59//16
f 62//17 64//18 63//18
f 62//17 63//18 61//17
f 64//18 66//19 65//19
f 64//18 65//19 63//18
f 66//19 68//20 67//20
f 66//19 67//20 65//19
f 68//20 70//21 69//21
f 68//20 69//21 67//20
f 70//21 72//22 71//22
f 70//21 71//22 69//21
f 72//22 38//5 37//5
f 72//22 37//5 71//22
o V.001
v -1.174097 0.480460 -5.134974
v -1.844109 -0.680032 -4.248831
v -1.682009 -0.399268 -3.708500
v -1.041716 0.709751 -4.556820
v -1.041716 0.709751 -3.011473
v -0.741832 1.229164 -3.011473
v -0.741832 1.229164 -4.556820
v -0.093433 2.352221 -3.697694
v 0.065965 2.628306 -4.248831
v -0.614854 1.449096 -5.134974
v 0.065965 2.628306 -6.021118
v -0.093433 2.352221 -6.561449
v -0.741832 1.229164 -5.696919
v -0.741832 1.229164 -7.236863
v -1.041716 0.709751 -7.236863
v -1.041716 0.709751 -5.707726
v -1.682009 -0.399268 -6.561449
v -1.844109 -0.680032 -6.021118
v -1.639230 0.749005 -5.134974
v -2.309242 -0.411487 -4.248831
v -2.147142 -0.130723 -3.708500
v -1.506849 0.978296 -4.556820
v -1.506849 0.978296 -3.011473
v -1.206964 1.497709 -3.011473
v -1.206964 1.497709 -4.556820
v -0.558566 2.620766 -3.697694
v -0.399168 2.896851 -4.248831
v -1.079986 1.717641 -5.134974
v -0.399168 2.896851 -6.021118
v -0.558566 2.620766 -6.561449
v -1.206964 1.497709 -5.696919
v -1.206964 1.497709 -7.236863
v -1.506849 0.978296 -7.236863
v -1.506849 0.978296 -5.707726
v -2.147142 -0.130723 -6.561449
v -2.309242 -0.411487 -6.021118
v -1.639230 0.749005 -5.134974
v -1.174097 0.480460 -5.134974
v -2.309242 -0.411487 -4.248831
v -1.844109 -0.680032 -4.248831
v -2.147142 -0.130723 -3.708500
v -1.682009 -0.399268 -3.708500
v -1.506849 0.978296 -4.556820
v -1.041716 0.709751 -4.556820
v -1.506849 0.978296 -3.011473
v -1.041716 0.709751 -3.011473
v -1.206964 1.497709 -3.011473
v -0.741832 1.229164 -3.011473
v -1.206964 1.497709 -4.556820
v -0.741832 1.229164 -4.556820
v -0.558566 2.620766 -3.697694
v -0.093433 2.352221 -3.697694
v -0.399168 2.896851 -4.248831
v 0.065965 2.628306 -4.248831
v -1.079986 1.717641 -5.134974
v -0.614854 1.449096 -5.134974
v -0.399168 2.896851 -6.021118
v 0.065965 2.628306 -6.021118
v -0.558566 2.620766 -6.561449
v -0.093433 2.352221 -6.561449
v -1.206964 1.497709 -5.696919
v -0.741832 1.229164 -5.696919
v -1.206964 1.497709 -7.236863
v -0.741832 1.229164 -7.236863
v -1.506849 0.978296 -7.236863
v -1.041716 0.709751 -7.236863
v -1.506849 0.978296 -5.707726
v -1.041716 0.709751 -5.707726
v -2.147142 -0.130723 -6.561449
v -1.682009 -0.399268 -6.561449
v -2.309242 -0.411487 -6.021118
v -1.844109 -0.680032 -6.021118
vn 0.866025 -0.500001 0.000000
vn -0.866025 0.500001 0.000000
vn -0.499985 -0.866024 0.000000
vn -0.487594 -0.844569 -0.221198
vn -0.110385 -0.191229 0.975311
vn -0.236549 -0.409742 0.880978
vn -0.353526 -0.612354 0.707083
vn 0.353526 0.612354 0.707083
vn 0.236549 0.409742 0.880978
vn 0.114292 0.197943 0.973510
vn 0.486282 0.842250 -0.232551
vn 0.499985 0.866024 0.000000
vn 0.486770 0.843135 0.228370
vn 0.111484 0.193091 -0.974792
vn 0.235908 0.408612 -0.881649
vn 0.353526 0.612354 -0.707083
vn -0.353526 -0.612354 -0.707083
vn -0.235908 -0.408612 -0.881649
vn -0.109684 -0.189978 -0.975616
vn -0.487594 -0.844569 0.221198
s off
f 85//23 87//23 86//23
f 85//23 88//23 87//23
f 83//23 85//23 84//23
f 88//23 90//23 89//23
f 82//23 85//23 83//23
f 88//23 73//23 90//23
f 85//23 73//23 88//23
f 82//23 73//23 85//23
f 81//23 73//23 82//23
f 79//23 73//23 81//23
f 76//23 73//23 79//23
f 74//23 73//23 76//23
f 81//23 80//23 79//23
f 78//23 76//23 79//23
f 78//23 77//23 76//23
f 75//23 74//23 76//23
f 105//24 103//24 104//24
f 106//24 103//24 105//24
f 103//24 101//24 102//24
f 108//24 106//24 107//24
f 103//24 100//24 101//24
f 91//24 106//24 108//24
f 91//24 103//24 106//24
f 91//24 100//24 103//24
f 91//24 99//24 100//24
f 97//24 99//24 91//24
f 94//24 97//24 91//24
f 92//24 94//24 91//24
f 98//24 99//24 97//24
f 94//24 96//24 97//24
f 95//24 96//24 94//24
f 92//24 93//24 94//24
s 1
f 110//25 112//26 111//26
f 110//25 111//26 109//25
f 112//26 114//27 113//27
f 112//26 113//27 111//26
f 114//27 116//28 115//28
f 114//27 115//28 113//27
f 116//28 118//29 117//29
f 116//28 117//29 115//28
f 118//29 120//30 119//30
f 118//29 119//30 117//29
f 120//30 122//31 121//31
f 120//30 121//31 119//30
f 122//31 124//32 123//32
f 122//31 123//32 121//31
f 124//32 126//33 125//33
f 124//32 125//33 123//32
f 126//33 128//34 127//34
f 126//33 127//34 125//33
f 128//34 130//35 129//35
f 128//34 129//35 127//34
f 130//35 132//36 131//36
f 130//35 131//36 129//35
f 132//36 134//37 133//37
f 132//36 133//37 131//36
f 134//37 136//38 135//38
f 134//37 135//38 133//37
f 136//38 138//39 137//39
f 136//38 137//39 135//38
f 138//39 140//40 139//40
f 138//39 139//40 137//39
f 140//40 142//41 141//41
f 140//40 141//41 139//40
f 142//41 144//42 143//42
f 142//41 143//42 141//41
f 144//42 110//25 109//25
f 144//42 109//25 143//42
o V
v -0.559694 1.372275 -5.134974
v 0.780327 1.372275 -4.248831
v 0.456129 1.372275 -3.708500
v -0.824456 1.372275 -4.556820
v -0.824456 1.372275 -3.011473
v -1.424224 1.372275 -3.011473
v -1.424224 1.372275 -4.556820
v -2.721019 1.372275 -3.697694
v -3.039814 1.372275 -4.248831
v -1.678180 1.372275 -5.134974
v -3.039814 1.372275 -6.021118
v -2.721019 1.372275 -6.561449
v -1.424224 1.372275 -5.696919
v -1.424224 1.372275 -7.236863
v -0.824456 1.372275 -7.236863
v -0.824456 1.372275 -5.707726
v 0.456129 1.372275 -6.561449
v 0.780327 1.372275 -6.021118
v -0.559694 0.835186 -5.134974
v 0.780327 0.835186 -4.248831
v 0.456129 0.835186 -3.708500
v -0.824456 0.835186 -4.556820
v -0.824456 0.835186 -3.011473
v -1.424224 0.835186 -3.011473
v -1.424224 0.835186 -4.556820
v -2.721019 0.835186 -3.697694
v -3.039814 0.835186 -4.248831
v -1.678180 0.835186 -5.134974
v -3.039814 0.835186 -6.021118
v -2.721019 0.835186 -6.561449
v -1.424224 0.835186 -5.696919
v -1.424224 0.835186 -7.236863
v -0.824456 0.835186 -7.236863
v -0.824456 0.835186 -5.707726
v 0.456129 0.835186 -6.561449
v 0.780327 0.835186 -6.021118
v -0.559694 0.835186 -5.134974
v -0.559694 1.372275 -5.134974
v 0.780327 0.835186 -4.248831
v 0.780327 1.372275 -4.248831
v 0.456129 0.835186 -3.708500
v 0.456129 1.372275 -3.708500
v -0.824456 0.835186 -4.556820
v -0.824456 1.372275 -4.556820
v -0.824456 0.835186 -3.011473
v -0.824456 1.372275 -3.011473
v -1.424224 0.835186 -3.011473
v -1.424224 1.372275 -3.011473
v -1.424224 0.835186 -4.556820
v -1.424224 1.372275 -4.556820
v -2.721019 0.835186 -3.697694
v -2.721019 1.372275 -3.697694
v -3.039814 0.835186 -4.248831
v -3.039814 1.372275 -4.248831
v -1.678180 0.835186 -5.134974
v -1.678180 1.372275 -5.134974
v -3.039814 0.835186 -6.021118
v -3.039814 1.372275 -6.021118
v -2.721019 0.835186 -6.561449
v -2.721019 1.372275 -6.561449
v -1.424224 0.835186 -5.696919
v -1.424224 1.372275 -5.696919
v -1.424224 0.835186 -7.236863
v -1.424224 1.372275 -7.236863
v -0.824456 0.835186 -7.236863
v -0.824456 1.372275 -7.236863
v -0.824456 0.835186 -5.707726
v -0.824456 1.372275 -5.707726
v 0.456129 0.835186 -6.561449
v 0.456129 1.372275 -6.561449
v 0.780327 0.835186 -6.021118
v 0.780327 1.372275 -6.021118
vn 0.000000 1.000000 -0.000000
vn 0.000000 -1.000000 0.000000
vn 1.000000 0.000000 0.000000
vn 0.975219 0.000000 -0.221198
vn 0.220801 0.000000 0.975311
vn 0.473128 0.000000 0.880978
vn 0.707083 0.000000 0.707083
vn -0.707083 0.000000 0.707083
vn -0.473128 0.000000 0.880978
vn -0.228584 0.000000 0.973510
vn -0.972564 0.000000 -0.232551
vn -0.999969 0.000000 0.000000
vn -0.973571 0.000000 0.228370
vn -0.222968 0.000000 -0.974792
vn -0.471847 0.000000 -0.881649
vn -0.707083 0.000000 -0.707083
vn 0.707083 0.000000 -0.707083
vn 0.471847 0.000000 -0.881649
vn 0.219367 0.000000 -0.975616
vn 0.975219 0.000000 0.221198
s off
f 157//43 159//43 158//43
f 157//43 160//43 159//43
f 155//43 157//43 156//43
f 160//43 162//43 161//43
f 154//43 157//43 155//43
f 160//43 145//43 162//43
f 157//43 145//43 160//43
f 154//43 145//43 157//43
f 153//43 145//43 154//43
f 151//43 145//43 153//43
f 148//43 145//43 151//43
f 146//43 145//43 148//43
f 153//43 152//43 151//43
f 150//43 148//43 151//43
f 150//43 149//43 148//43
f 147//43 146//43 148//43
f 177//44 175//44 176//44
f 178//44 175//44 177//44
f 175//44 173//44 174//44
f 180//44 178//44 179//44
f 175//44 172//44 173//44
f 163//44 178//44 180//44
f 163//44 175//44 178//44
f 163//44 172//44 175//44
f 163//44 171//44 172//44
f 169//44 171//44 163//44
f 166//44 169//44 163//44
f 164//44 166//44 163//44
f 170//44 171//44 169//44
f 166//44 168//44 169//44
f 167//44 168//44 166//44
f 164//44 165//44 166//44
s 1
f 182//45 184//46 183//46
f 182//45 183//46 181//45
f 184//46 186//47 185//47
f 184//46 185//47 183//46
f 186//47 188//48 187//48
f 186//47 187//48 185//47
f 188//48 190//49 189//49
f 188//48 189//49 187//48
f 190//49 192//50 191//50
f 190//49 191//50 189//49
f 192//50 194//51 193//51
f 192//50 193//51 191//50
f 194//51 196//52 195//52
f 194//51 195//52 193//51
f 196//52 198//53 197//53
f 196//52 197//53 195//52
f 198//53 200//54 199//54
f 198//53 199//54 197//53
f 200//54 202//55 201//55
f 200//54 201//55 199//54
f 202//55 204//56 203//56
f 202//55 203//56 201//55
f 204//56 206//57 205//57
f 204//56 205//57 203//56
f 206//57 208//58 207//58
f 206//57 207//58 205//57
f 208//58 210//59 209//59
f 208//58 209//59 207//58
f 210//59 212//60 211//60
f 210//59 211//60 209//59
f 212//60 214//61 213//61
f 212//60 213//61 211//60
f 214//61 216//62 215//62
f 214//61 215//62 213//61
f 216//62 182//45 181//45
f 216//62 181//45 215//62
